<svg width="187" height="55" viewBox="0 0 187 55" fill="none" xmlns="http://www.w3.org/2000/svg">
<path fill-rule="evenodd" clip-rule="evenodd" d="M3.06013 41.7065H9.81509C11.5152 41.7065 12.8979 40.4798 12.8752 38.9917V29.1985H20.5595C29.6493 29.1985 37.0163 22.6631 37.0163 14.5993C37.0163 6.53549 29.6493 0 20.5369 0H12.8752H8.65901H3.06013C1.38273 0 0 1.22666 0 2.71474V38.9917C0 40.4798 1.36006 41.7065 3.06013 41.7065Z" fill="url(#paint0_linear_3_2311)" fill-opacity="0.8"/>
<path fill-rule="evenodd" clip-rule="evenodd" d="M10.1636 49.642H16.9186C18.6187 49.642 20.0014 48.4153 19.9787 46.9273V37.1342H27.6631C36.7528 37.1342 44.1198 30.5987 44.1198 22.5349C44.1198 14.4711 36.7528 7.93561 27.6404 7.93561H19.9787V7.93555H10.1636C8.48624 7.93555 7.10352 9.16221 7.10352 10.6503V46.9273C7.10352 48.4153 8.46358 49.642 10.1636 49.642Z" fill="url(#paint1_linear_3_2311)" fill-opacity="0.74"/>
<path d="M7.10205 53.1372L8.78565 53.1314C10.9894 53.1238 12.7718 51.3352 12.7718 49.1314V38.6451H19.9719C25.6658 38.5556 37.0185 35.0492 36.8777 21.7393C36.7369 8.42946 25.5485 4.923 19.9719 4.8335" stroke="white" stroke-width="2"/>
<path d="M54.9616 23.4336V44.4336H59.2516V23.4336H54.9616ZM57.5716 27.0636H61.7416C62.8816 27.0636 63.7816 27.3236 64.4416 27.8436C65.1016 28.3436 65.4316 29.1036 65.4316 30.1236C65.4316 31.1236 65.1016 31.8836 64.4416 32.4036C63.7816 32.9236 62.8816 33.1836 61.7416 33.1836H57.5716V36.8136H61.7416C63.4016 36.8136 64.8116 36.5436 65.9716 36.0036C67.1516 35.4636 68.0516 34.6936 68.6716 33.6936C69.2916 32.6736 69.6016 31.4836 69.6016 30.1236C69.6016 28.7436 69.2916 27.5536 68.6716 26.5536C68.0516 25.5536 67.1516 24.7836 65.9716 24.2436C64.8116 23.7036 63.4016 23.4336 61.7416 23.4336H57.5716V27.0636ZM75.7847 30.6336H71.9747V44.4336H75.7847V30.6336ZM79.8347 34.6836L81.6047 31.3836C81.3247 31.0236 80.9547 30.7536 80.4947 30.5736C80.0547 30.3936 79.5847 30.3036 79.0847 30.3036C78.3647 30.3036 77.6647 30.5636 76.9847 31.0836C76.3047 31.5836 75.7547 32.2636 75.3347 33.1236C74.9147 33.9636 74.7047 34.9336 74.7047 36.0336L75.7847 37.1136C75.7847 36.4536 75.8647 35.8936 76.0247 35.4336C76.2047 34.9536 76.4647 34.5836 76.8047 34.3236C77.1447 34.0636 77.5547 33.9336 78.0347 33.9336C78.4347 33.9336 78.7647 34.0036 79.0247 34.1436C79.3047 34.2636 79.5747 34.4436 79.8347 34.6836ZM83.4841 25.2936C83.4841 25.9136 83.7141 26.4336 84.1741 26.8536C84.6341 27.2736 85.1841 27.4836 85.8241 27.4836C86.4641 27.4836 87.0041 27.2736 87.4441 26.8536C87.9041 26.4336 88.1341 25.9136 88.1341 25.2936C88.1341 24.6536 87.9041 24.1336 87.4441 23.7336C87.0041 23.3136 86.4641 23.1036 85.8241 23.1036C85.1841 23.1036 84.6341 23.3136 84.1741 23.7336C83.7141 24.1336 83.4841 24.6536 83.4841 25.2936ZM83.9041 30.6336V44.4336H87.6841V30.6336H83.9041ZM112.209 35.6136C112.209 34.4936 112.049 33.5436 111.729 32.7636C111.429 31.9636 110.959 31.3636 110.319 30.9636C109.679 30.5436 108.849 30.3336 107.829 30.3336C106.889 30.3336 106.049 30.5336 105.309 30.9336C104.589 31.3336 103.979 31.9236 103.479 32.7036C103.179 31.9236 102.699 31.3336 102.039 30.9336C101.379 30.5336 100.539 30.3336 99.5187 30.3336C98.5987 30.3336 97.8087 30.5336 97.1487 30.9336C96.4887 31.3336 95.9587 31.9136 95.5587 32.6736V30.6336H91.8087V44.4336H95.5587V36.0336C95.5587 35.4336 95.6587 34.9236 95.8587 34.5036C96.0587 34.0636 96.3387 33.7436 96.6987 33.5436C97.0587 33.3236 97.4787 33.2136 97.9587 33.2136C98.6787 33.2136 99.1987 33.4536 99.5187 33.9336C99.8387 34.3936 99.9987 35.0936 99.9987 36.0336V44.4336H103.869V36.0336C103.869 35.4336 103.969 34.9236 104.169 34.5036C104.369 34.0636 104.649 33.7436 105.009 33.5436C105.369 33.3236 105.789 33.2136 106.269 33.2136C106.989 33.2136 107.509 33.4536 107.829 33.9336C108.149 34.3936 108.309 35.0936 108.309 36.0336V44.4336H112.209V35.6136ZM122.547 44.7336C124.207 44.7336 125.627 44.4136 126.807 43.7736C128.007 43.1136 128.967 42.1336 129.687 40.8336L126.297 39.7836C125.897 40.4436 125.387 40.9436 124.767 41.2836C124.167 41.6036 123.437 41.7636 122.577 41.7636C121.817 41.7636 121.167 41.5936 120.627 41.2536C120.087 40.9136 119.677 40.4236 119.397 39.7836C119.137 39.1436 119.007 38.3636 119.007 37.4436C119.027 36.4836 119.167 35.6836 119.427 35.0436C119.707 34.3836 120.097 33.8936 120.597 33.5736C121.117 33.2336 121.757 33.0636 122.517 33.0636C123.137 33.0636 123.677 33.2036 124.137 33.4836C124.597 33.7636 124.947 34.1436 125.187 34.6236C125.447 35.1036 125.577 35.6836 125.577 36.3636C125.577 36.5036 125.537 36.6836 125.457 36.9036C125.397 37.1036 125.327 37.2636 125.247 37.3836L126.297 36.0036H117.327V38.4036H129.687C129.707 38.2836 129.717 38.1236 129.717 37.9236C129.737 37.7236 129.747 37.5336 129.747 37.3536C129.747 35.8736 129.467 34.6136 128.907 33.5736C128.347 32.5136 127.527 31.7136 126.447 31.1736C125.387 30.6136 124.097 30.3336 122.577 30.3336C121.057 30.3336 119.737 30.6336 118.617 31.2336C117.497 31.8136 116.627 32.6436 116.007 33.7236C115.407 34.7836 115.107 36.0536 115.107 37.5336C115.107 38.9936 115.407 40.2636 116.007 41.3436C116.627 42.4036 117.497 43.2336 118.617 43.8336C119.737 44.4336 121.047 44.7336 122.547 44.7336ZM133.038 23.4336V44.4336H137.328V23.4336H133.038ZM135.648 27.0636H139.818C140.958 27.0636 141.858 27.3236 142.518 27.8436C143.178 28.3436 143.508 29.1036 143.508 30.1236C143.508 31.1236 143.178 31.8836 142.518 32.4036C141.858 32.9236 140.958 33.1836 139.818 33.1836H135.648V36.8136H139.818C141.478 36.8136 142.888 36.5436 144.048 36.0036C145.228 35.4636 146.128 34.6936 146.748 33.6936C147.368 32.6736 147.678 31.4836 147.678 30.1236C147.678 28.7436 147.368 27.5536 146.748 26.5536C146.128 25.5536 145.228 24.7836 144.048 24.2436C142.888 23.7036 141.478 23.4336 139.818 23.4336H135.648V27.0636ZM152.489 40.1436C152.489 39.7436 152.579 39.4136 152.759 39.1536C152.939 38.8736 153.219 38.6636 153.599 38.5236C153.979 38.3636 154.469 38.2836 155.069 38.2836C155.809 38.2836 156.509 38.3836 157.169 38.5836C157.849 38.7836 158.459 39.0836 158.999 39.4836V37.6836C158.799 37.4436 158.469 37.1936 158.009 36.9336C157.549 36.6736 156.979 36.4536 156.299 36.2736C155.639 36.0936 154.869 36.0036 153.989 36.0036C152.269 36.0036 150.939 36.3936 149.999 37.1736C149.059 37.9536 148.589 39.0136 148.589 40.3536C148.589 41.2936 148.809 42.0936 149.249 42.7536C149.709 43.3936 150.309 43.8836 151.049 44.2236C151.789 44.5636 152.589 44.7336 153.449 44.7336C154.289 44.7336 155.089 44.5836 155.849 44.2836C156.629 43.9836 157.259 43.5336 157.739 42.9336C158.239 42.3336 158.489 41.5936 158.489 40.7136L158.009 38.9136C158.009 39.5736 157.859 40.1436 157.559 40.6236C157.259 41.0836 156.869 41.4436 156.389 41.7036C155.909 41.9436 155.369 42.0636 154.769 42.0636C154.349 42.0636 153.959 41.9936 153.599 41.8536C153.259 41.6936 152.989 41.4736 152.789 41.1936C152.589 40.8936 152.489 40.5436 152.489 40.1436ZM150.989 34.5336C151.189 34.3936 151.499 34.2236 151.919 34.0236C152.339 33.8236 152.839 33.6536 153.419 33.5136C153.999 33.3736 154.609 33.3036 155.249 33.3036C155.669 33.3036 156.049 33.3436 156.389 33.4236C156.729 33.5036 157.019 33.6336 157.259 33.8136C157.519 33.9936 157.709 34.2236 157.829 34.5036C157.949 34.7636 158.009 35.0836 158.009 35.4636V44.4336H161.759V34.6536C161.759 33.7136 161.499 32.9236 160.979 32.2836C160.459 31.6236 159.739 31.1236 158.819 30.7836C157.899 30.4436 156.849 30.2736 155.669 30.2736C154.389 30.2736 153.229 30.4536 152.189 30.8136C151.149 31.1536 150.269 31.5136 149.549 31.8936L150.989 34.5336ZM178.367 30.6336H174.317L169.967 41.5536L171.887 41.6136L167.447 30.6336H163.127L168.857 43.0536L165.377 51.0336H169.367L178.367 30.6336ZM178.682 42.6636C178.682 43.3036 178.912 43.8636 179.372 44.3436C179.852 44.8236 180.442 45.0636 181.142 45.0636C181.862 45.0636 182.452 44.8236 182.912 44.3436C183.372 43.8636 183.602 43.3036 183.602 42.6636C183.602 41.9836 183.372 41.4136 182.912 40.9536C182.452 40.4736 181.862 40.2336 181.142 40.2336C180.442 40.2336 179.852 40.4736 179.372 40.9536C178.912 41.4136 178.682 41.9836 178.682 42.6636Z" fill="#231656"/>
<defs>
<linearGradient id="paint0_linear_3_2311" x1="7.26888" y1="1.62944" x2="19.3001" y2="44.9324" gradientUnits="userSpaceOnUse">
<stop stop-color="#7D7AFF"/>
<stop offset="1" stop-color="#3CBBFF"/>
</linearGradient>
<linearGradient id="paint1_linear_3_2311" x1="14.3724" y1="9.56499" x2="26.4036" y2="52.8679" gradientUnits="userSpaceOnUse">
<stop stop-color="#FF60CF"/>
<stop offset="1" stop-color="#FFBA64"/>
</linearGradient>
</defs>
</svg>
